Coordinates
version=1
nRows=13
nColumns=40
inDegrees=yes

Units are S.I. units (second, meters, Newtons, ...)
Angles are in degrees.

endheader
time	pelvis_tilt	pelvis_list	pelvis_rotation	pelvis_tx	pelvis_ty	pelvis_tz	hip_flexion_r	hip_adduction_r	hip_rotation_r	knee_angle_r	knee_angle_r_beta	ankle_angle_r	subtalar_angle_r	mtp_angle_r	hip_flexion_l	hip_adduction_l	hip_rotation_l	knee_angle_l	knee_angle_l_beta	ankle_angle_l	subtalar_angle_l	mtp_angle_l	lumbar_extension	lumbar_bending	lumbar_rotation	arm_flex_r	arm_add_r	arm_rot_r	elbow_flex_r	pro_sup_r	wrist_flex_r	wrist_dev_r	arm_flex_l	arm_add_l	arm_rot_l	elbow_flex_l	pro_sup_l	wrist_flex_l	wrist_dev_l
     53.57000000	     -4.88249229	     -3.60923459	     10.49981717	      0.96780934	      0.91646735	      0.45896310	     -0.52341347	      2.57256393	    -17.41703834	     18.16035778	     18.16035778	     19.57587103	     -5.36737666	     -1.65434514	     28.96520296	     -2.36051766	      4.50567882	     24.50723691	     24.50723691	      4.55421683	     -8.90161416	     -1.02855414	     -7.64526420	      1.25143185	      6.14355421	     54.62993112	    -19.76819529	     -7.48101039	     82.52569598	     44.92495373	      0.00000000	      0.00000000	    -12.49416297	     -9.41041853	      9.25478226	     33.77430472	     44.63715065	      0.00000000	      0.00000000
     53.58828571	     -4.88618305	     -3.60365291	     10.12567220	      0.96909093	      0.91710680	      0.45589599	     -0.84232215	      2.30102409	    -17.22606609	     18.44888079	     18.44888079	     19.35714211	     -5.18960347	     -1.68384864	     28.60041485	     -2.30184507	      4.42743245	     24.88542954	     24.88542954	      5.17216104	     -9.34051945	     -1.15851682	     -7.60377099	      1.18884392	      6.18247200	     53.97101055	    -19.32757364	     -7.31395636	     82.10410053	     44.93180843	      0.00000000	      0.00000000	    -11.41166013	     -9.66422523	      9.05550889	     34.18964931	     44.68286486	      0.00000000	      0.00000000
     53.60657143	     -4.84348212	     -3.60870755	      9.70164404	      0.97034931	      0.91776957	      0.45288382	     -1.04968938	      1.97855681	    -17.05726487	     19.03962405	     19.03962405	     19.15241925	     -4.98076747	     -1.83548602	     28.18911726	     -2.26758426	      4.34282282	     25.28876936	     25.28876936	      5.79911574	     -9.84647289	     -1.20985951	     -7.58671860	      1.10605033	      6.31957591	     53.20125956	    -19.04503543	     -7.24245217	     81.32218596	     44.95388006	      0.00000000	      0.00000000	    -10.27346649	     -9.91878196	      8.76893010	     34.65683886	     44.74176385	      0.00000000	      0.00000000
     53.62485714	     -4.88669602	     -3.52150754	      9.22220301	      0.97146581	      0.91831418	      0.44979444	     -0.88004467	      1.40008729	    -16.95545339	     20.20583973	     20.20583973	     19.01839360	     -4.77483101	     -2.30661706	     27.78570675	     -2.13039996	      4.15886020	     25.57633121	     25.57633121	      6.40035173	    -10.35349045	     -1.04070764	     -7.46112978	      0.95823136	      6.54079200	     52.40982980	    -18.91418670	     -7.32192171	     79.89462296	     45.00418632	      0.00000000	      0.00000000	     -9.01570604	    -10.14920098	      8.27498338	     35.14126835	     44.83326910	      0.00000000	      0.00000000
     53.64314286	     -4.91618570	     -3.50881712	      8.76968584	      0.97245629	      0.91896547	      0.44678252	     -0.58970421	      0.85222966	    -16.92964752	     21.55231375	     21.55231375	     18.60189725	     -4.53877737	     -3.28964904	     27.36138554	     -2.06117949	      4.02095659	     25.78906334	     25.78906334	      7.02981416	    -10.78645593	     -0.48274606	     -7.30493881	      0.87743063	      6.39587363	     51.70183418	    -18.17827976	     -7.31754941	     77.83761223	     45.07786481	      0.00000000	      0.00000000	     -7.73421722	    -10.21668207	      7.34008774	     35.22458235	     44.99368080	      0.00000000	      0.00000000
     53.66142857	     -4.86193840	     -3.41372327	      8.26229283	      0.97343102	      0.91975733	      0.44382990	     -0.15164082	      0.19071375	    -16.62911620	     23.32883603	     23.32883603	     18.22925505	     -4.70998650	     -4.00333645	     26.74125133	     -1.98212782	      3.68197758	     25.84493572	     25.84493572	      7.58777551	    -10.92873051	     -0.48787023	     -7.35217903	      0.75181834	      6.27191271	     50.63842671	    -17.61867640	     -7.07795457	     76.80255999	     45.10256576	      0.00000000	      0.00000000	     -6.36965783	    -10.45150271	      6.94410739	     35.39262816	     45.07129437	      0.00000000	      0.00000000
     53.67971429	     -4.81751287	     -3.35435620	      7.76992492	      0.97427261	      0.92054779	      0.44078379	      0.44913188	     -0.51310464	    -16.43181284	     25.25620660	     25.25620660	     16.93042233	     -5.19238673	     -7.10013228	     26.14599643	     -1.88747547	      3.44017064	     25.89463392	     25.89463392	      8.20595748	    -11.22430406	      0.02427031	     -7.27560999	      0.71415289	      5.86330346	     49.87134296	    -16.68369380	     -6.72460994	     74.07537454	     45.19332930	      0.00000000	      0.00000000	     -4.63803613	    -10.29057170	      5.58859658	     34.19458644	     45.30409843	      0.00000000	      0.00000000
     53.69800000	     -4.71303781	     -3.25206385	      7.24808947	      0.97508547	      0.92139381	      0.43783307	      1.35383408	     -1.33416533	    -16.04691131	     27.90404258	     27.90404258	     16.26809171	     -5.62099246	     -7.98024730	     25.44325635	     -1.81276542	      2.98075602	     25.85499972	     25.85499972	      8.62984574	    -11.31526687	     -0.11561086	     -7.38890992	      0.61615925	      5.68341999	     48.25946149	    -16.20141280	     -6.41431037	     73.27678094	     45.20381132	      0.00000000	      0.00000000	     -3.20248522	    -10.53812618	      5.39524983	     34.48883241	     45.35370853	      0.00000000	      0.00000000
     53.71628571	     -4.60333957	     -3.12646291	      6.72216225	      0.97573588	      0.92220830	      0.43482760	      2.53410442	     -2.26673664	    -15.62401731	     30.98658989	     30.98658989	     15.28090994	     -6.17919086	     -9.17913650	     24.72555062	     -1.68627260	      2.55323317	     25.77236980	     25.77236980	      8.98712708	    -11.50349040	     -0.20063764	     -7.49935833	      0.56371055	      5.51902804	     46.49169948	    -15.72488877	     -6.07349400	     72.15864548	     45.22282465	      0.00000000	      0.00000000	     -1.60644717	    -10.73819857	      5.29256094	     34.59341445	     45.39305306	      0.00000000	      0.00000000
     53.73457143	     -4.52535723	     -3.09046790	      6.22359406	      0.97630839	      0.92290670	      0.43179000	      3.74708482	     -3.05781498	    -15.06890400	     33.65163080	     33.65163080	     11.49547040	     -8.59782922	    -17.04234471	     24.03911325	     -1.56687043	      2.39089642	     25.64063871	     25.64063871	      9.29644860	    -11.99943070	     -0.22909224	     -7.43440498	      0.63992996	      5.29951567	     44.99001654	    -15.17086183	     -5.53029735	     69.57968564	     45.29589070	      0.00000000	      0.00000000	      0.80757451	    -10.60845441	      5.28836846	     32.50114449	     45.45582217	      0.00000000	      0.00000000
     53.75285714	     -4.35392988	     -2.95386074	      5.67913808	      0.97679808	      0.92371267	      0.42881701	      5.35704200	     -4.07294996	    -14.44527967	     37.39567302	     37.39567302	      9.78397136	     -9.46870470	    -18.01934215	     23.24221318	     -1.39956030	      1.99842539	     25.50630616	     25.50630616	      9.65467203	    -12.25197028	     -0.27272334	     -7.61631622	      0.63171172	      5.10373606	     42.81214480	    -14.79497176	     -5.21414981	     68.37603131	     45.31616639	      0.00000000	      0.00000000	      2.39290713	    -10.84267573	      5.26825200	     32.86436223	     45.48467197	      0.00000000	      0.00000000
     53.77114286	     -4.16655721	     -2.90809012	      5.16677603	      0.97719883	      0.92440482	      0.42584495	      7.02767758	     -4.88096906	    -13.58363953	     40.88724180	     40.88724180	      6.02628933	    -12.22779409	    -22.96193457	     22.48246447	     -1.23888548	      1.90802066	     25.42381259	     25.42381259	      9.97529905	    -12.91365213	     -0.07760973	     -7.70908852	      0.77525319	      4.97515230	     40.83660873	    -14.39003706	     -4.78281843	     65.69479702	     45.38620087	      0.00000000	      0.00000000	      4.60489241	    -10.91793011	      6.03945225	     31.77656806	     45.42872471	      0.00000000	      0.00000000
     53.78942857	     -3.94423066	     -2.87127180	      4.64748927	      0.97752837	      0.92495039	      0.42289051	      8.97962574	     -5.67946687	    -12.62967164	     44.91632615	     44.91632615	      3.13984035	    -14.00062745	    -23.95461111	     21.76576745	     -1.10002027	      1.75192264	     25.47417277	     25.47417277	     10.34646672	    -13.46919286	      0.03996998	     -7.90183497	      0.96768925	      4.95361225	     38.42665985	    -14.18118064	     -4.51698496	     63.72930975	     45.43280997	      0.00000000	      0.00000000	      6.46602574	    -11.03326403	      6.36842865	     32.01812322	     45.41963004	      0.00000000	      0.00000000
